<svg width="16" height="16" viewBox="0 0 16 16" fill="none" xmlns="http://www.w3.org/2000/svg">
<path fill-rule="evenodd" clip-rule="evenodd" d="M9.53553 9.53553C7.58291 11.4882 4.41709 11.4882 2.46447 9.53553C0.511845 7.58291 0.511845 4.41709 2.46447 2.46447C4.41709 0.511845 7.58291 0.511845 9.53553 2.46447C11.4882 4.41709 11.4882 7.58291 9.53553 9.53553ZM1.75736 10.2426C-0.585786 7.8995 -0.585786 4.1005 1.75736 1.75736C4.1005 -0.585786 7.8995 -0.585786 10.2426 1.75736C12.4667 3.98144 12.5797 7.51718 10.5817 9.87457L15.8536 15.1464C16.0488 15.3417 16.0488 15.6583 15.8536 15.8536C15.6583 16.0488 15.3417 16.0488 15.1464 15.8536L9.87457 10.5817C7.51718 12.5797 3.98144 12.4667 1.75736 10.2426Z" fill="black"/>
</svg>
