<svg width="17" height="16" viewBox="0 0 17 16" fill="none" xmlns="http://www.w3.org/2000/svg">
<path fill-rule="evenodd" clip-rule="evenodd" d="M10.3424 9.53553C8.3898 11.4882 5.22397 11.4882 3.27135 9.53553C1.31873 7.58291 1.31873 4.41709 3.27135 2.46447C5.22397 0.511845 8.3898 0.511845 10.3424 2.46447C12.295 4.41709 12.295 7.58291 10.3424 9.53553ZM2.56424 10.2426C0.221098 7.8995 0.221098 4.1005 2.56424 1.75736C4.90739 -0.585786 8.70638 -0.585786 11.0495 1.75736C13.2736 3.98144 13.3866 7.51718 11.3886 9.87457L16.6604 15.1464C16.8557 15.3417 16.8557 15.6583 16.6604 15.8536C16.4652 16.0488 16.1486 16.0488 15.9533 15.8536L10.6814 10.5817C8.32407 12.5797 4.78833 12.4667 2.56424 10.2426Z" fill="#191919"/>
</svg>
