<svg width="126" height="20" viewBox="0 0 126 20" fill="none" xmlns="http://www.w3.org/2000/svg">
<path d="M30.4295 19.7135V0H29.7748L15.4274 9.25501L1.137 0H0.453796V19.7135H5.80559V9.05444L15.0858 15.0143H15.7406L25.0777 8.96848V19.7135H30.4295Z" fill="#191919"/>
<path d="M48.4647 19.7135L43.3406 0.171919H37.9889L32.8648 19.7135H37.7896L38.4728 16.3324H42.7144L43.426 19.7135H48.4647ZM42.0312 12.4642H39.156L40.5793 5.32951L42.0312 12.4642Z" fill="#191919"/>
<path d="M65.0307 0.401146H60.1913V8.79656L51.5943 0.114613H50.8826V19.7135H55.7505V11.2894L64.3475 20H65.0307V0.401146Z" fill="#191919"/>
<path d="M81.1404 19.0831V9.28367H76.5002V15.8453C76.301 15.9312 76.0163 15.9599 75.7601 15.9599C73.4543 15.9599 72.828 13.0946 72.828 10.2006C72.828 6.73352 73.9097 4.3553 78.2083 4.3553C78.863 4.3553 79.6031 4.38395 80.3433 4.41261L80.4856 0.315186C79.5747 0.229227 78.6637 0.200572 77.7528 0.200572C69.8105 0.200572 67.8747 5.24355 67.8747 9.82808C67.8747 15.5587 70.4937 19.914 76.2725 19.914C77.9805 19.914 79.6601 19.5989 81.1404 19.0831Z" fill="#191919"/>
<path d="M98.6433 19.7135L93.5193 0.171919H88.1675L83.0434 19.7135H87.9682L88.6514 16.3324H92.893L93.6047 19.7135H98.6433ZM92.2098 12.4642H89.3346L90.758 5.32951L92.2098 12.4642Z" fill="#191919"/>
<path d="M110.609 4.52722V0.401146H97.9414V4.52722H101.841V19.7135H106.709V4.52722H110.609Z" fill="#191919"/>
<path d="M125.498 19.7135L120.374 0.171919H115.022L109.898 19.7135H114.823L115.506 16.3324H119.748L120.459 19.7135H125.498ZM119.064 12.4642H116.189L117.613 5.32951L119.064 12.4642Z" fill="#191919"/>
<path d="M30.4296 0.00561507V0H29.7748L28.0323 1.12408C28.4964 0.964091 29.3534 0.626541 30.4296 0.00561507Z" fill="#F79D1D"/>
<path d="M30.4296 4.8974C28.6856 5.98351 27.4236 6.32879 27.4066 6.32879L27.3534 6.34507C23.7782 7.77602 20.8788 7.70737 18.7102 7.13744L17.7165 7.77843C20.1302 8.59614 23.498 8.90441 27.6862 7.2344C27.8885 7.17617 28.9527 6.85774 30.4296 6.00562V4.8974Z" fill="#F79D1D"/>
<path d="M90.0233 0.171919C90.6463 1.61116 91.1953 3.08181 91.6682 4.57807L91.6983 4.66421C92.4031 6.72689 93.6695 8.25178 95.3703 9.05497C95.5459 9.1379 95.7251 9.21252 95.9073 9.27883L95.6064 8.1313C94.2203 7.41817 93.173 6.11778 92.5741 4.35923L92.5441 4.27309C92.101 2.88218 91.5922 1.51357 91.0195 0.171919H90.0233Z" fill="#F79D1D"/>
<path d="M92.3659 0.171919C92.8219 0.985889 93.3898 1.67567 94.0572 2.22333L93.5595 0.325273C93.5595 0.325285 93.5595 0.32526 93.5595 0.325273C93.5238 0.274878 93.4887 0.223734 93.4541 0.171919H92.3659Z" fill="#F79D1D"/>
<path d="M109.887 0.401146C109.042 1.43304 108.217 2.48303 107.409 3.51207L107.038 3.98458C106.701 4.41352 106.364 4.84288 106.026 5.2695C104.734 6.89729 103.358 8.05787 101.841 8.79402V7.74558C103.077 7.06527 104.218 6.05534 105.307 4.68517L106.624 3.01359C107.301 2.15085 107.989 1.2728 108.693 0.401146H109.887Z" fill="#F79D1D"/>
<path d="M105.042 0.401146C103.819 1.67935 102.514 2.57555 101.083 3.12249C100.03 3.52547 98.9643 3.70791 97.9415 3.67018V2.73199C98.8503 2.76854 99.8057 2.60634 100.757 2.24946C101.803 1.84925 102.781 1.23857 103.711 0.401146H105.042Z" fill="#F79D1D"/>
</svg>
